<svg xmlns="http://www.w3.org/2000/svg" version="1.1" xmlns:xlink="http://www.w3.org/1999/xlink" xmlns:svgjs="http://svgjs.dev/svgjs" width="1440" height="560" preserveAspectRatio="none" viewBox="0 0 1440 560"><g mask="url(&quot;#SvgjsMask1012&quot;)" fill="none"><path d="M596.52-16C476.24-8.21 414.88 204.52 175.6 219.12-63.69 233.72-126.32 436.29-245.33 443.12" stroke="rgba(62, 117, 255, 0.58)" stroke-width="2"></path><path d="M919.81-38.53C802.73-25.7 732.82 229.1 533.21 230.69 333.6 232.28 339.91 160.69 146.6 160.69-46.7 160.69-141.78 230.41-240 230.69" stroke="rgba(62, 117, 255, 0.58)" stroke-width="2"></path><path d="M1218.4-56.02C1017.75-45.19 867.55 313.37 505.09 314.41 142.63 315.45-27.71 202.75-208.22 202.41" stroke="rgba(62, 117, 255, 0.58)" stroke-width="2"></path><path d="M1199.27-40.66C1007.61-32.59 854.7 286.34 505.25 286.63 155.79 286.92-10.59 125.31-188.78 124.23" stroke="rgba(62, 117, 255, 0.58)" stroke-width="2"></path><path d="M826.94-68.72C661.84-42.76 602.69 338.33 310.14 355.33 17.59 372.33-73.51 483.16-206.66 484.13" stroke="rgba(62, 117, 255, 0.58)" stroke-width="2"></path></g><defs><mask id="SvgjsMask1012"><rect width="1440" height="560" fill="#ffffff"></rect></mask></defs></svg>